<svg
    id="e477ee67-375e-447e-9caf-d163e8724c30"
    data-name="Layer 1"
    xmlns="http://www.w3.org/2000/svg"
    xmlns:xlink="http://www.w3.org/1999/xlink"
    viewBox="0 0 34.45 32.79"
>
    <defs>
        <linearGradient
            id="b884fd65-7cb2-40f9-9cec-13f10494b420"
            x1="20.38"
            y1="19.43"
            x2="33.69"
            y2="11.19"
            gradientTransform="matrix(1, 0, 0, -1, 0, 38.44)"
            gradientUnits="userSpaceOnUse"
        >
            <stop offset="0" stop-color="#0067e0" />
            <stop offset="1" stop-color="#0074ff" />
        </linearGradient>
        <linearGradient
            id="e6c3bb06-0701-497e-97af-955d60be3d50"
            x1="-0.15"
            y1="24.52"
            x2="19.22"
            y2="26.71"
            xlink:href="#b884fd65-7cb2-40f9-9cec-13f10494b420"
        />
    </defs>
    <path
        d="M23,31.37a9,9,0,0,0,.71-8.68,8.91,8.91,0,0,0-2.4-2.79c4.32,2.38,8.43-1.18,11.07-4.26-2,3-2.41,7.24.69,9.51C28.61,25.12,25.39,28,23,31.37Z"
        fill="#fff"
        stroke-linecap="round"
        stroke-linejoin="round"
        stroke-width="2.83"
        fill-rule="evenodd"
        stroke="url(#b884fd65-7cb2-40f9-9cec-13f10494b420)"
    />
    <path
        d="M11.89,24a11.17,11.17,0,0,0-6-9,11,11,0,0,0-4.49-.88C7.47,13.1,8.76,6.46,9,1.42c.29,4.46,3.22,8.93,8,8.76C12.62,13.56,11.66,18.84,11.89,24Z"
        fill="#fff"
        stroke-linecap="round"
        stroke-linejoin="round"
        stroke-width="2.83"
        fill-rule="evenodd"
        stroke="url(#e6c3bb06-0701-497e-97af-955d60be3d50)"
    />
</svg>
