<svg width="139" height="113" viewBox="0 0 139 113" fill="none" xmlns="http://www.w3.org/2000/svg">
    <path d="M138.5 9.01953H26C17.1634 9.01953 10 16.183 10 25.0195V112.02" stroke="#E6F0FD" stroke-width="4" />
    <g clip-path="url(#clip0_141_146)">
        <rect width="46" height="35" transform="translate(0 0.0195312)" fill="white" />
        <path
            d="M5.568 26.8755C3.648 24.5715 2.784 21.4995 2.784 17.7555C2.784 12.4755 4.32 8.44353 7.584 5.56353C10.752 2.77953 15.168 1.33953 20.736 1.24353V8.25153C17.76 8.34753 15.456 9.01953 13.92 10.1715C12.384 11.4195 11.616 12.9555 11.616 14.7795C11.616 15.4515 11.616 15.9315 11.712 16.1235C12.672 15.6435 13.728 15.3555 14.784 15.3555C16.608 15.3555 18.144 16.0275 19.392 17.2755C20.64 18.5235 21.312 20.3475 21.312 22.6515C21.312 24.7635 20.448 26.5875 18.816 28.1235C17.184 29.6595 15.168 30.3315 12.864 30.3315C9.792 30.3315 7.392 29.1795 5.568 26.8755ZM26.4 26.8755C24.48 24.5715 23.616 21.4995 23.616 17.7555C23.616 12.4755 25.152 8.44353 28.416 5.56353C31.584 2.77953 36 1.33953 41.568 1.24353L41.568 8.25153C38.592 8.34753 36.288 9.01953 34.752 10.1715C33.216 11.4195 32.448 12.9555 32.448 14.7795C32.448 15.4515 32.448 15.9315 32.544 16.1235C33.504 15.6435 34.56 15.3555 35.616 15.3555C37.44 15.3555 38.976 16.0275 40.224 17.2755C41.472 18.5235 42.144 20.3475 42.144 22.6515C42.144 24.7635 41.28 26.5875 39.648 28.1235C38.016 29.6595 36 30.3315 33.696 30.3315C30.624 30.3315 28.224 29.1795 26.4 26.8755Z"
            fill="#E6F0FD"
        />
    </g>
    <defs>
        <clipPath id="clip0_141_146">
            <rect width="46" height="35" fill="white" transform="translate(0 0.0195312)" />
        </clipPath>
    </defs>
</svg>
