<svg width="139" height="113" viewBox="0 0 139 113" fill="none" xmlns="http://www.w3.org/2000/svg">
    <path
        d="M0 103.02L112.5 103.02C121.337 103.02 128.5 95.8561 128.5 87.0195L128.5 0.0195312"
        stroke="#E6F0FD"
        stroke-width="4"
    />
    <g clip-path="url(#clip0_141_147)">
        <rect width="46" height="35" transform="translate(138.5 112.02) rotate(-180)" fill="white" />
        <path
            d="M132.932 85.1635C134.852 87.4675 135.716 90.5395 135.716 94.2835C135.716 99.5635 134.18 103.596 130.916 106.476C127.748 109.26 123.332 110.7 117.764 110.796L117.764 103.788C120.74 103.692 123.044 103.02 124.58 101.868C126.116 100.62 126.884 99.0835 126.884 97.2595C126.884 96.5875 126.884 96.1075 126.788 95.9155C125.828 96.3955 124.772 96.6835 123.716 96.6835C121.892 96.6835 120.356 96.0115 119.108 94.7635C117.86 93.5155 117.188 91.6915 117.188 89.3875C117.188 87.2755 118.052 85.4515 119.684 83.9155C121.316 82.3795 123.332 81.7075 125.636 81.7075C128.708 81.7075 131.108 82.8595 132.932 85.1635ZM112.1 85.1635C114.02 87.4675 114.884 90.5395 114.884 94.2835C114.884 99.5635 113.348 103.596 110.084 106.476C106.916 109.26 102.5 110.7 96.932 110.796L96.932 103.788C99.908 103.692 102.212 103.02 103.748 101.868C105.284 100.62 106.052 99.0835 106.052 97.2595C106.052 96.5875 106.052 96.1075 105.956 95.9155C104.996 96.3955 103.94 96.6835 102.884 96.6835C101.06 96.6835 99.524 96.0115 98.276 94.7635C97.028 93.5155 96.356 91.6915 96.356 89.3875C96.356 87.2755 97.22 85.4515 98.852 83.9155C100.484 82.3795 102.5 81.7075 104.804 81.7075C107.876 81.7075 110.276 82.8595 112.1 85.1635Z"
            fill="#E6F0FD"
        />
    </g>
    <defs>
        <clipPath id="clip0_141_147">
            <rect width="46" height="35" fill="white" transform="translate(138.5 112.02) rotate(-180)" />
        </clipPath>
    </defs>
</svg>
