<?xml version="1.0" encoding="utf-8"?>
<!-- Generator: Adobe Illustrator 24.1.1, SVG Export Plug-In . SVG Version: 6.00 Build 0)  -->
<!DOCTYPE svg PUBLIC "-//W3C//DTD SVG 1.1//EN" "http://www.w3.org/Graphics/SVG/1.1/DTD/svg11.dtd" [ <!ENTITY ns_extend "http://ns.adobe.com/Extensibility/1.0/">
<!ENTITY ns_ai "http://ns.adobe.com/AdobeIllustrator/10.0/">
<!ENTITY ns_graphs "http://ns.adobe.com/Graphs/1.0/">
<!ENTITY ns_vars "http://ns.adobe.com/Variables/1.0/">
<!ENTITY ns_imrep "http://ns.adobe.com/ImageReplacement/1.0/">
<!ENTITY ns_sfw "http://ns.adobe.com/SaveForWeb/1.0/">
<!ENTITY ns_custom "http://ns.adobe.com/GenericCustomNamespace/1.0/">
<!ENTITY ns_adobe_xpath "http://ns.adobe.com/XPath/1.0/">
]>
<svg
    version="1.1"
    id="Layer_1"
    xmlns:x="&ns_extend;"
    xmlns:i="&ns_ai;"
    xmlns:graph="&ns_graphs;"
    xmlns="http://www.w3.org/2000/svg"
    xmlns:xlink="http://www.w3.org/1999/xlink"
    x="0px"
    y="0px"
    viewBox="0 0 401 545"
    style="enable-background: new 0 0 401 545"
    xml:space="preserve"
>
    <style type="text/css">
        .st0 {
            clip-path: url(#SVGID_2_);
        }
        .st1 {
            fill: url(#SVGID_3_);
        }
        .st2 {
            fill: #ffffff;
            fill-opacity: 5e-2;
        }
    </style>
    <metadata>
        <sfw xmlns="&ns_sfw;">
            <slices></slices>
            <sliceSourceBounds
                bottomLeftOrigin="true"
                height="626.8"
                width="1353.7"
                x="-548.2"
                y="-42.1"
            ></sliceSourceBounds>
        </sfw>
    </metadata>
    <g>
        <defs>
            <rect id="SVGID_1_" y="1" width="401" height="544" />
        </defs>
        <clipPath id="SVGID_2_">
            <use xlink:href="#SVGID_1_" style="overflow: visible" />
        </clipPath>
        <g class="st0">
            <linearGradient
                id="SVGID_3_"
                gradientUnits="userSpaceOnUse"
                x1="-187.404"
                y1="265.7421"
                x2="469.675"
                y2="250.9071"
                gradientTransform="matrix(1 0 0 -1 0 546)"
            >
                <stop offset="0" style="stop-color: #0067e0" />
                <stop offset="1" style="stop-color: #0074ff" />
            </linearGradient>
            <rect x="-136" y="1" class="st1" width="537" height="573" />
            <path
                class="st2"
                d="M130.7,424.1c-116.6,22.4-286.8-36.4-344.9-58.6c-9.7-3.7-20.3,3.5-20.3,13.8v193.2c0,8,6.5,14.5,14.5,14.5
			h864.1c8,0,14.5-6.5,14.5-14.5V250.3c0-7.3-5.4-13.5-12.7-14.2c-33-3.4-123.4-10.8-185.2,1.4C325.8,264.3,265.8,398.1,130.7,424.1
			z"
            />
            <path
                class="st2"
                d="M5.3,293.4c-183.9,40.2-455.9-71.2-532.6-105.2c-9.8-4.3-20.8,2.9-20.8,13.6v357.9c0,8,6.5,14.5,14.5,14.5
			H791c8,0,14.5-6.5,14.5-14.5V-15.4c0-7.2-5.3-13.3-12.5-14.2c-43.2-5.3-189.2-20.4-287.4,1.6C300.9,18,210.1,248.6,5.3,293.4z"
            />
        </g>
    </g>
</svg>
