<?xml version="1.0" encoding="utf-8"?>
<!-- Generator: Adobe Illustrator 24.1.1, SVG Export Plug-In . SVG Version: 6.00 Build 0)  -->
<!DOCTYPE svg PUBLIC "-//W3C//DTD SVG 1.1//EN" "http://www.w3.org/Graphics/SVG/1.1/DTD/svg11.dtd" [ <!ENTITY ns_extend "http://ns.adobe.com/Extensibility/1.0/">
<!ENTITY ns_ai "http://ns.adobe.com/AdobeIllustrator/10.0/">
<!ENTITY ns_graphs "http://ns.adobe.com/Graphs/1.0/">
<!ENTITY ns_vars "http://ns.adobe.com/Variables/1.0/">
<!ENTITY ns_imrep "http://ns.adobe.com/ImageReplacement/1.0/">
<!ENTITY ns_sfw "http://ns.adobe.com/SaveForWeb/1.0/">
<!ENTITY ns_custom "http://ns.adobe.com/GenericCustomNamespace/1.0/">
<!ENTITY ns_adobe_xpath "http://ns.adobe.com/XPath/1.0/">
]>
<svg
    version="1.1"
    id="Layer_1"
    xmlns:x="&ns_extend;"
    xmlns:i="&ns_ai;"
    xmlns:graph="&ns_graphs;"
    xmlns="http://www.w3.org/2000/svg"
    xmlns:xlink="http://www.w3.org/1999/xlink"
    x="0px"
    y="0px"
    viewBox="0 0 402 181"
    style="enable-background: new 0 0 402 181"
    xml:space="preserve"
>
    <style type="text/css">
        .st0 {
            clip-path: url(#SVGID_2_);
        }
        .st1 {
            fill: url(#SVGID_3_);
        }
        .st2 {
            fill: #ffffff;
            fill-opacity: 5e-2;
        }
    </style>
    <metadata>
        <sfw xmlns="&ns_sfw;">
            <slices></slices>
            <sliceSourceBounds bottomLeftOrigin="true" height="377" width="832" x="-274" y="-134"></sliceSourceBounds>
        </sfw>
    </metadata>
    <g>
        <defs>
            <rect id="SVGID_1_" y="0" width="402" height="180" />
        </defs>
        <clipPath id="SVGID_2_">
            <use xlink:href="#SVGID_1_" style="overflow: visible" />
        </clipPath>
        <g class="st0">
            <g>
                <linearGradient
                    id="SVGID_3_"
                    gradientUnits="userSpaceOnUse"
                    x1="-38.8876"
                    y1="104.8868"
                    x2="453.8391"
                    y2="78.3773"
                    gradientTransform="matrix(1 0 0 -1 0 182)"
                >
                    <stop offset="0" style="stop-color: #0067e0" />
                    <stop offset="1" style="stop-color: #0074ff" />
                </linearGradient>
                <rect y="0" class="st1" width="402" height="180" />
            </g>
            <path
                class="st2"
                d="M110.7,189.2C0.8,210.4-171,137.8-171,137.8V315h689V45.2c0,0-93.4-11.7-152.6,0
			C261.2,65.8,214.9,169.2,110.7,189.2z"
            />
            <path
                class="st2"
                d="M66.2,142.6c-106.5,23.3-261-36.1-318-60.5c-10.4-4.5-22.2,3.2-22.2,14.5v203.1c0,8.5,6.9,15.4,15.4,15.4
			h801.3c8.5,0,15.4-6.9,15.4-15.4V-41.5c0-7.6-5.6-14.1-13.2-15c-31.8-3.6-114.5-11.1-171.1,1.6C247.9-26.6,192,115,66.2,142.6z"
            />
        </g>
    </g>
</svg>
